<svg width="213" height="39" viewBox="0 0 213 39" fill="none" xmlns="http://www.w3.org/2000/svg">
<path d="M73.7207 9.44482H78.2161L72.0166 32.1686H63.1147L56.8706 9.44482H61.3661L66.4593 27.865H68.6656L73.7143 9.44482H73.7207Z" fill="black"/>
<path d="M86.2471 0.101562V4.41146H81.936V0.101562H86.2471ZM81.936 9.26723H86.2471V32.1306H81.936V9.26723Z" fill="black"/>
<path d="M90.8823 32.1759V9.45214H95.3778V12.0165H95.4668C95.9247 11.3119 96.7449 10.7026 97.9212 10.1821C99.0975 9.6616 100.42 9.40137 101.889 9.40137C103.142 9.40137 104.401 9.52196 105.653 9.76951C106.906 10.0171 108.057 10.5312 109.093 11.3246C110.136 12.1181 110.975 13.2669 111.617 14.7586C112.26 16.2566 112.584 18.2687 112.584 20.8077V32.1695H107.993V21.125C107.993 19.6271 107.872 18.402 107.624 17.4372C107.376 16.4724 107.008 15.717 106.499 15.1712C105.997 14.6189 105.354 14.2381 104.572 14.0286C103.79 13.8128 102.881 13.7049 101.844 13.7049C100.808 13.7049 99.8224 13.8128 98.9958 14.0286C98.1692 14.2444 97.4825 14.6253 96.9293 15.1712C96.3761 15.7234 95.9564 16.447 95.664 17.3483C95.3715 18.2497 95.2252 19.3858 95.2252 20.7632V32.1695H90.8633L90.8823 32.1759Z" fill="black"/>
<path d="M122.599 27.8656H132.01V32.1755H118.288V13.7553H114.435V9.44543H118.288V0.0957031H122.605V9.44543H130.267V13.7553H122.605V27.8656H122.599Z" fill="black"/>
<path d="M144.447 9.58544C146.437 9.58544 148.128 9.92185 149.521 10.5947C150.913 11.2675 152.032 12.2069 152.872 13.4129C153.711 14.6189 154.296 16.0471 154.614 17.6974C154.932 19.3478 155.021 21.1314 154.868 23.061H138.025C138.025 24.1337 138.19 25.0033 138.527 25.6698C138.864 26.3426 139.322 26.8631 139.907 27.2249C140.485 27.5931 141.147 27.8406 141.878 27.9802C142.609 28.1199 143.391 28.1834 144.218 28.1834C144.796 28.1834 145.394 28.158 146.004 28.1135C146.615 28.0691 147.181 27.9612 147.702 27.7962C148.224 27.6311 148.688 27.3772 149.101 27.0408C149.514 26.7044 149.794 26.2474 149.953 25.6634H154.36C154.054 26.8885 153.584 27.9168 152.961 28.7546C152.331 29.5925 151.581 30.2717 150.71 30.7921C149.839 31.3126 148.859 31.6935 147.772 31.9347C146.685 32.1759 145.528 32.3028 144.307 32.3028C140.606 32.3028 137.904 31.338 136.206 29.4148C134.508 27.4915 133.656 24.6669 133.656 20.941C133.656 19.2906 133.879 17.7736 134.324 16.3835C134.769 14.9934 135.43 13.7938 136.32 12.7845C137.204 11.7753 138.323 10.9882 139.671 10.4233C141.019 9.85838 142.609 9.5791 144.447 9.5791V9.58544ZM150.595 19.024C150.564 18.6559 150.487 18.1608 150.366 17.5324C150.246 16.904 149.979 16.2947 149.565 15.698C149.152 15.1013 148.548 14.5936 147.753 14.1619C146.958 13.7367 145.871 13.5208 144.491 13.5208C143.239 13.5208 142.196 13.7049 141.369 14.0731C140.543 14.4412 139.875 14.8982 139.373 15.4505C138.87 16.0027 138.514 16.593 138.317 17.2404C138.12 17.8815 138.018 18.4782 138.018 19.024H150.595Z" fill="black"/>
<path d="M172.952 9.44482H177.269V32.1686H158.632V9.44482H162.943V27.865H172.952V9.44482Z" fill="black"/>
<path d="M212.33 9.44482V32.1686H208.013V13.7484H199.245V32.1686H194.927V13.7484H186.159V32.1686H181.848V9.44482H212.324H212.33Z" fill="black"/>
<path d="M41.9345 38.2622H31.2267V10.6891H27.7041V0H41.9345V38.2622Z" fill="url(#paint0_linear_1_1475)"/>
<path d="M41.9789 38.5098H11.776V10.8985H0V0.209473H22.4837V27.8207H41.9789V38.5098Z" fill="url(#paint1_linear_1_1475)"/>
<defs>
<linearGradient id="paint0_linear_1_1475" x1="34.8193" y1="2.9579" x2="34.8193" y2="36.5865" gradientUnits="userSpaceOnUse">
<stop stop-color="#FFAE00"/>
<stop offset="0.46" stop-color="#3CAE66"/>
<stop offset="1" stop-color="#009086"/>
</linearGradient>
<linearGradient id="paint1_linear_1_1475" x1="0" y1="19.3596" x2="41.9789" y2="19.3596" gradientUnits="userSpaceOnUse">
<stop stop-color="#3CAE66"/>
<stop offset="1" stop-color="#009086"/>
</linearGradient>
</defs>
</svg>
