<svg width="34" height="34" viewBox="0 0 34 34" fill="none" xmlns="http://www.w3.org/2000/svg">
<rect width="34" height="34" rx="17" fill="#DCEFEB"/>
<path d="M26.0701 19.16C25.6901 18.56 25.0201 18.23 24.3201 18.31C22.5501 18.5 20.8001 18.11 19.1001 17.16C17.7801 16.42 16.7301 15.32 16.0801 13.99C15.2201 12.24 14.9501 10.46 15.2901 8.7C15.4201 8.01 15.1501 7.33 14.6001 6.91C14.0301 6.48 13.2801 6.41 12.6401 6.73C7.74013 9.19 5.71013 14.96 7.92013 20.15C8.87013 22.38 10.6301 24.12 12.8601 25.07C14.3401 25.69 15.8501 26 17.3201 26C20.8501 26 24.1301 24.27 26.0801 21.13C26.4601 20.52 26.4501 19.77 26.0801 19.17L26.0701 19.16ZM13.6401 23.23C11.9101 22.5 10.4901 21.09 9.76013 19.37C7.75013 14.66 9.98013 10.48 13.2801 8.66C12.9501 10.75 13.3001 12.84 14.3001 14.88C15.1301 16.57 16.4601 17.96 18.1301 18.9C20.1001 20 22.1401 20.49 24.2101 20.33C22.3101 23.14 18.2801 25.19 13.6401 23.23Z" fill="#346C60"/>
</svg>
