<svg width="34" height="34" viewBox="0 0 34 34" fill="none" xmlns="http://www.w3.org/2000/svg">
<rect width="34" height="34" rx="17" fill="#DCEFEB"/>
<path d="M16.9997 10.2C13.2484 10.2 10.1997 13.2487 10.1997 17C10.1997 20.7513 13.2484 23.8 16.9997 23.8C20.751 23.8 23.7997 20.7513 23.7997 17C23.7997 13.2487 20.751 10.2 16.9997 10.2ZM16.9997 21.5333C14.495 21.5333 12.4664 19.5047 12.4664 17C12.4664 14.4953 14.495 12.4667 16.9997 12.4667C19.5044 12.4667 21.533 14.4953 21.533 17C21.533 19.5047 19.5044 21.5333 16.9997 21.5333Z" fill="#346C60"/>
<path d="M17 9.06667C17.6234 9.06667 18.1334 8.55667 18.1334 7.93333V6.8C18.1334 6.17667 17.6234 5.66667 17 5.66667C16.3767 5.66667 15.8667 6.17667 15.8667 6.8V7.93333C15.8667 8.55667 16.3767 9.06667 17 9.06667Z" fill="#346C60"/>
<path d="M17 24.9333C16.3767 24.9333 15.8667 25.4433 15.8667 26.0667V27.2C15.8667 27.8233 16.3767 28.3333 17 28.3333C17.6234 28.3333 18.1334 27.8233 18.1334 27.2V26.0667C18.1334 25.4433 17.6234 24.9333 17 24.9333Z" fill="#346C60"/>
<path d="M9.0665 17C9.0665 16.3767 8.5565 15.8667 7.93317 15.8667H6.79984C6.1765 15.8667 5.6665 16.3767 5.6665 17C5.6665 17.6233 6.1765 18.1333 6.79984 18.1333H7.93317C8.5565 18.1333 9.0665 17.6233 9.0665 17Z" fill="#346C60"/>
<path d="M27.1998 15.8667H26.0664C25.4431 15.8667 24.9331 16.3767 24.9331 17C24.9331 17.6233 25.4431 18.1333 26.0664 18.1333H27.1998C27.8231 18.1333 28.3331 17.6233 28.3331 17C28.3331 16.3767 27.8231 15.8667 27.1998 15.8667Z" fill="#346C60"/>
<path d="M9.79193 22.61L8.98726 23.4146C8.54526 23.8566 8.54526 24.5706 8.98726 25.0126C9.21393 25.2393 9.49726 25.3413 9.79193 25.3413C10.0866 25.3413 10.3699 25.228 10.5966 25.0126L11.4013 24.208C11.8433 23.766 11.8433 23.052 11.4013 22.61C10.9593 22.168 10.2453 22.168 9.80326 22.61H9.79193Z" fill="#346C60"/>
<path d="M23.4144 11.7187C23.7091 11.7187 23.9924 11.6053 24.2191 11.39L25.0237 10.5853C25.4657 10.1433 25.4657 9.42935 25.0237 8.98735C24.5817 8.54535 23.8677 8.54535 23.4257 8.98735L22.6211 9.79201C22.1791 10.234 22.1791 10.948 22.6211 11.39C22.8477 11.6167 23.131 11.7187 23.4257 11.7187H23.4144Z" fill="#346C60"/>
<path d="M24.2078 22.61C23.7658 22.168 23.0518 22.168 22.6098 22.61C22.1678 23.052 22.1678 23.766 22.6098 24.208L23.4145 25.0126C23.6412 25.2393 23.9245 25.3413 24.2192 25.3413C24.5138 25.3413 24.7972 25.228 25.0238 25.0126C25.4658 24.5706 25.4658 23.8566 25.0238 23.4146L24.2192 22.61H24.2078Z" fill="#346C60"/>
<path d="M9.79183 11.39C10.0185 11.6167 10.3018 11.7187 10.5965 11.7187C10.8912 11.7187 11.1745 11.6053 11.4012 11.39C11.8432 10.948 11.8432 10.234 11.4012 9.79201L10.5965 8.98735C10.1545 8.54535 9.44049 8.54535 8.99849 8.98735C8.55649 9.42935 8.55649 10.1433 8.99849 10.5853L9.80316 11.39H9.79183Z" fill="#346C60"/>
</svg>
