<svg width="602" height="648" viewBox="0 0 602 648" fill="none" xmlns="http://www.w3.org/2000/svg">
<g opacity="0.1" clip-path="url(#clip0_1_422)">
<path d="M648 259.193L648 129.596L518.199 129.596L518.199 259.193L648 259.193Z" fill="#9FDACD"/>
<path d="M518.198 129.596L518.198 2.28882e-05L388.398 1.72144e-05L388.398 129.596L518.198 129.596Z" fill="#9FDACD"/>
<path d="M388.388 259.193L388.388 129.596L258.587 129.596L258.587 259.193L388.388 259.193Z" fill="#9FDACD"/>
<path d="M524 564L524 259L394 259L394 564L524 564Z" fill="#9FDACD"/>
<path fill-rule="evenodd" clip-rule="evenodd" d="M258.587 516.344L258.587 259.202L257.555 259.202L257.555 258.172L-0.00158911 258.172L-0.00159477 387.778L128.777 387.778L128.777 516.344L258.587 516.344Z" fill="#9FDACD"/>
</g>
<defs>
<clipPath id="clip0_1_422">
<rect width="648" height="648" fill="white" transform="translate(648 3.05176e-05) rotate(90)"/>
</clipPath>
</defs>
</svg>
