<svg width="1090" height="992" viewBox="0 0 1090 992" fill="none" xmlns="http://www.w3.org/2000/svg">
<g opacity="0.1" clip-path="url(#clip0_11_302)">
<path d="M1127 436L1127 218L963 218L963 436L1127 436Z" fill="black"/>
<path d="M962.661 217.994L962.661 4.76454e-05L744.324 3.81016e-05L744.324 217.994L962.661 217.994Z" fill="black"/>
<path d="M744.308 435.988L744.308 217.994L525.97 217.994L525.97 435.988L744.308 435.988Z" fill="black"/>
<path d="M972.42 948.704L972.42 435.664L753.747 435.664L753.747 948.704L972.42 948.704Z" fill="black"/>
<path fill-rule="evenodd" clip-rule="evenodd" d="M525.968 868.542L525.968 436.004L524.233 436.004L524.233 434.271L90.9969 434.271L90.9969 652.28L307.615 652.28L307.615 868.542L525.968 868.542Z" fill="black"/>
</g>
<defs>
<clipPath id="clip0_11_302">
<rect width="992" height="1090" fill="white" transform="translate(1090 4.76454e-05) rotate(90)"/>
</clipPath>
</defs>
</svg>
