<svg width="46" height="46" viewBox="0 0 46 46" fill="none" xmlns="http://www.w3.org/2000/svg">
<circle cx="22.5176" cy="22.5176" r="22" stroke="white" stroke-width="1.03529"/>
<path fill-rule="evenodd" clip-rule="evenodd" d="M30.5655 15.009C30.7306 15.0837 30.8723 15.2019 30.9755 15.351C33.5855 19.131 34.8955 23.431 34.4155 28.351C34.4018 28.4912 34.3586 28.6269 34.2888 28.7493C34.219 28.8716 34.1242 28.9778 34.0105 29.061C32.2405 30.361 30.2505 31.341 28.1405 31.971C27.9456 32.0297 27.7374 32.027 27.5441 31.9631C27.3508 31.8992 27.182 31.7773 27.0605 31.614C26.6085 31.014 26.2045 30.374 25.8505 29.714C24.7605 29.976 23.6405 30.11 22.5205 30.11C21.3905 30.11 20.2705 29.976 19.1905 29.713C18.8388 30.3778 18.4342 31.0132 17.9805 31.613C17.8574 31.7771 17.6867 31.8994 17.4918 31.9633C17.2968 32.0272 17.0868 32.0295 16.8905 31.97C14.7816 31.3386 12.7963 30.351 11.0205 29.05C10.9067 28.9667 10.8117 28.8603 10.7419 28.7378C10.6721 28.6153 10.629 28.4794 10.6155 28.339C10.2055 24.079 11.0335 19.739 14.0455 15.339C14.1485 15.188 14.2915 15.068 14.4585 14.992C15.9885 14.301 17.5985 13.812 19.2485 13.532C19.6635 13.462 20.0785 13.66 20.2885 14.026C20.3951 14.216 20.4978 14.4083 20.5965 14.603C21.8728 14.4661 23.1601 14.4661 24.4365 14.603C24.5338 14.4083 24.6365 14.216 24.7445 14.026C24.8458 13.8465 25.0001 13.7027 25.1863 13.6143C25.3724 13.5259 25.5814 13.4971 25.7845 13.532C27.4345 13.809 29.0445 14.299 30.5745 14.992L30.5655 15.009ZM25.0355 15.708C23.3647 15.4591 21.6663 15.4591 19.9955 15.708C19.8222 15.308 19.6285 14.918 19.4145 14.538C17.8445 14.803 16.3145 15.268 14.8745 15.928C12.0045 20.138 11.2245 24.238 11.6145 28.228C13.2945 29.458 15.1745 30.398 17.1845 30.998C17.6359 30.3999 18.0347 29.7638 18.3765 29.097C18.0739 28.985 17.776 28.8609 17.4835 28.725L17.4505 28.71C17.1258 28.5576 16.8082 28.3908 16.4985 28.21C16.6555 28.098 16.8095 27.98 16.9585 27.869C17.709 28.2191 18.4912 28.4967 19.2945 28.698C21.652 29.2929 24.1281 29.2251 26.4495 28.502C27.0095 28.328 27.5595 28.116 28.0895 27.868C28.2408 27.9907 28.3941 28.1047 28.5495 28.21C28.4715 28.2553 28.3922 28.3003 28.3115 28.345C28.0768 28.475 27.8378 28.597 27.5945 28.711L27.5635 28.726C27.2708 28.862 26.9728 28.986 26.6695 29.098C26.7255 29.208 26.7835 29.317 26.8435 29.425C27.1445 29.9735 27.4847 30.4995 27.8615 30.999C29.8615 30.401 31.7515 29.469 33.4315 28.239C33.8885 23.549 32.6515 19.489 30.1615 15.839C28.7145 15.1839 27.1883 14.72 25.6215 14.459C25.4075 14.839 25.2138 15.229 25.0405 15.629L25.0355 15.708ZM16.8855 23.618C16.8855 24.818 17.7815 25.788 18.8655 25.788C19.9755 25.788 20.8255 24.814 20.8455 23.618C20.8645 22.418 19.9755 21.438 18.8655 21.438C17.7555 21.438 16.8855 22.421 16.8855 23.618ZM24.1955 23.618C24.1955 24.818 25.0885 25.788 26.1755 25.788C27.2855 25.788 28.1355 24.814 28.1555 23.618C28.1755 22.418 27.2925 21.438 26.1755 21.438C25.0585 21.438 24.1955 22.421 24.1955 23.618Z" fill="white"/>
</svg>
