<svg width="46" height="46" viewBox="0 0 46 46" fill="none" xmlns="http://www.w3.org/2000/svg">
<circle cx="22.5176" cy="22.5176" r="22" stroke="#F5FFFD" stroke-width="1.03529"/>
<path d="M17.5504 19.6753H13.7646V31.7479H17.5504V19.6753Z" stroke="#F5FFFD" stroke-width="1.03529"/>
<path d="M27.7903 19.4137C27.6508 19.3963 27.5025 19.3876 27.3542 19.3788C25.2345 19.2916 24.0394 20.5477 23.6207 21.0885C23.5073 21.2368 23.455 21.3241 23.455 21.3241V19.7103H19.835V31.7829H23.455H23.6207C23.6207 30.553 23.6207 29.3318 23.6207 28.1018C23.6207 27.4389 23.6207 26.7759 23.6207 26.113C23.6207 25.293 23.5597 24.4207 23.9697 23.6705C24.3186 23.0425 24.9466 22.7285 25.6532 22.7285C27.7467 22.7285 27.7903 24.6214 27.7903 24.7958C27.7903 24.8045 27.7903 24.8133 27.7903 24.8133V31.8353H31.5761V23.9584C31.5761 21.263 30.2066 19.6754 27.7903 19.4137Z" stroke="#F5FFFD" stroke-width="1.03529"/>
<path d="M15.6572 18.1142C16.8712 18.1142 17.8554 17.13 17.8554 15.916C17.8554 14.7019 16.8712 13.7178 15.6572 13.7178C14.4431 13.7178 13.459 14.7019 13.459 15.916C13.459 17.13 14.4431 18.1142 15.6572 18.1142Z" stroke="#F5FFFD" stroke-width="1.03529"/>
</svg>
