<svg width="44" height="44" viewBox="0 0 44 44" fill="none" xmlns="http://www.w3.org/2000/svg">
<path d="M22 0.5C33.8732 0.5 43.5 10.1268 43.5 22C43.5 33.8732 33.8732 43.5 22 43.5C10.1268 43.5 0.5 33.8732 0.5 22C0.5 10.1268 10.1268 0.5 22 0.5ZM32.5547 6.37793C32.0619 6.28239 31.5898 6.31673 31.1826 6.52832C30.7753 6.74009 30.493 7.09868 30.3213 7.53809C29.8064 8.76834 30.1582 10.2792 31.1719 11.3545V11.3555C31.6055 11.8177 32.1135 12.2157 32.5449 12.583V12.584C32.8518 12.8458 33.1224 13.1349 33.3906 13.4668V13.4678C33.6224 13.7572 33.6529 14.2293 33.5322 14.7656C33.4754 15.0182 33.3915 15.2527 33.3125 15.4326C33.2731 15.5223 33.2369 15.5944 33.208 15.6455C33.193 15.672 33.1828 15.6877 33.1777 15.6953C32.8916 15.9888 32.6532 16.1373 32.3838 16.2188C32.0941 16.3063 31.7284 16.3298 31.1621 16.3057H31.1611C30.9538 16.2975 30.6155 16.2155 30.1543 16.0654C29.7053 15.9193 29.1943 15.7278 28.6514 15.5293C28.1149 15.3332 27.5516 15.1319 27.0215 14.9766C26.4972 14.8229 25.9716 14.7038 25.5176 14.6895C21.5042 14.5634 18.6961 16.4254 17.834 16.8672V16.8682C17.2272 17.1795 16.468 17.3547 15.8281 17.4521C15.5127 17.5002 15.2351 17.5279 15.0322 17.5449C14.9308 17.5534 14.8483 17.5592 14.7871 17.5635C14.7577 17.5656 14.7297 17.5675 14.708 17.5693C14.6974 17.5702 14.6835 17.5717 14.6699 17.5732C14.6674 17.5735 14.6645 17.5738 14.6611 17.5742C14.2463 17.6058 13.5574 17.6418 12.8916 17.7051C12.2214 17.7687 11.4919 17.8655 10.9805 18.041C10.3157 18.2281 9.7583 18.4884 9.30078 18.9033C8.83633 19.3246 8.51142 19.8721 8.26172 20.5703L8.25391 20.5918L8.24805 20.6133C8.17002 20.9156 8.11847 21.2255 8.11914 21.5166C8.11983 21.8041 8.17247 22.1152 8.3457 22.3809L8.34668 22.3828C8.63115 22.8151 9.12266 23.1699 9.55078 23.4355C9.97655 23.6997 10.463 23.9452 10.6943 24.0771L10.6963 24.0791C10.8626 24.1728 11.0392 24.1986 11.1777 24.2021C11.3205 24.2058 11.4597 24.1871 11.5781 24.1621C11.698 24.1368 11.8104 24.1023 11.9033 24.0674C11.9804 24.0384 12.0786 23.9946 12.1582 23.9404L12.1592 23.9414C12.7581 23.5377 13.2119 23.2725 13.8096 23.1865L13.8135 23.1855C13.8939 23.1734 14.148 23.1299 14.4404 23.1289C14.7584 23.1278 14.9974 23.1795 15.1133 23.2646L15.1162 23.2676C15.5237 23.5622 15.8697 23.7435 16.3057 23.9404V23.9414C17.0384 24.2757 18.5299 24.6737 18.8125 24.748C18.7891 24.7719 18.7655 24.7982 18.7393 24.8242C18.4965 25.0649 18.1662 25.3661 17.8252 25.665C17.4853 25.9631 17.1403 26.2544 16.873 26.4736C16.7392 26.5834 16.6268 26.6739 16.5449 26.7373C16.5058 26.7676 16.4761 26.7893 16.4561 26.8037C15.6721 27.1355 15.172 27.6998 15.0127 28.5078L15.0117 28.5107C14.9839 28.656 14.9211 28.8045 14.8477 28.9092L14.8447 28.9141C14.6286 29.2283 14.0395 30.0674 13.4385 30.9248C12.8397 31.7791 12.2284 32.6511 11.9707 33.0264L11.9697 33.0273C11.7887 33.2921 11.6473 33.3688 11.46 33.4004C11.2525 33.4339 10.9705 33.4668 10.7432 33.5391C10.4771 33.6236 10.2155 33.7779 10.0322 34.085C9.87911 34.3402 9.88173 34.6447 9.89941 34.8418C9.91903 35.0603 9.97115 35.2771 10.0225 35.4424V35.4434C10.023 35.4474 10.0238 35.4602 10.0205 35.4844C10.0156 35.5197 10.0039 35.5641 9.98438 35.6143C9.96531 35.6633 9.9424 35.7091 9.92188 35.7471C9.91176 35.7658 9.90276 35.7827 9.89453 35.7969C9.89126 35.8025 9.88534 35.8123 9.88184 35.8184C9.87973 35.822 9.87151 35.8364 9.86328 35.8525C9.59023 36.3883 9.46633 36.9232 9.50488 37.4795V37.4814C9.5094 37.5432 9.51712 37.7711 9.58203 37.9736C9.61626 38.0803 9.67739 38.2211 9.7959 38.3418C9.92598 38.4742 10.1026 38.5592 10.3086 38.5684C10.5814 38.5804 10.8079 38.497 10.9746 38.3496C11.1227 38.2185 11.1913 38.0587 11.2002 38.041C11.225 37.9914 11.2814 37.8741 11.334 37.7646C11.3832 37.6621 11.4295 37.5657 11.4531 37.5176C11.5205 37.3935 11.7168 37.1491 11.9453 36.8887C12.1683 36.6346 12.35 36.4426 12.4082 36.3779C12.5001 36.2759 12.8207 35.8481 13.2168 35.3125C13.6289 34.7553 14.1532 34.0414 14.668 33.3369C15.1829 32.6322 15.6887 31.9361 16.0664 31.417C16.2553 31.1574 16.412 30.9417 16.5215 30.791C16.576 30.716 16.6192 30.6574 16.6484 30.6172C16.6631 30.597 16.6751 30.5807 16.6826 30.5703C16.6838 30.5686 16.6845 30.5668 16.6855 30.5654C16.9192 30.2603 17.0652 30.0852 17.2861 30L17.2881 29.999C17.9192 29.7521 18.3544 29.2584 18.5205 28.6172C18.555 28.5853 18.6009 28.5439 18.6592 28.4941C18.8149 28.3612 19.0313 28.1853 19.2725 27.9941C19.7533 27.6129 20.317 27.1814 20.6553 26.9238V26.9229C20.6525 26.925 20.673 26.9111 20.7334 26.8789C20.7708 26.859 20.8158 26.8365 20.8672 26.8115C20.543 27.3533 20.1835 27.9875 19.9551 28.5059L19.8584 28.7393C19.8032 28.8827 19.7519 29.1234 19.7285 29.3584C19.7066 29.5783 19.6967 29.9092 19.8096 30.1816V30.1826C19.9444 30.5086 20.1709 30.7778 20.4814 30.9316C20.7912 31.0851 21.1387 31.1002 21.4746 31.002L21.4756 31.0029L21.4775 31.002C21.4791 31.0015 21.4808 31.0014 21.4824 31.001L21.4814 31C21.687 30.9412 21.864 30.8424 21.9775 30.7793L21.9873 30.7744C22.0315 30.7486 22.0803 30.7216 22.125 30.6992C22.1519 30.6858 22.1792 30.6726 22.2061 30.6592C22.2329 30.6458 22.2593 30.6316 22.2861 30.6182V30.6191L22.293 30.6152C22.4312 30.5438 22.5142 30.5018 22.5928 30.4766L22.5977 30.4756C23.0499 30.3248 23.5084 30.182 23.9717 30.0381L24.9102 29.7461H24.9111C25.562 29.541 26.2078 29.3394 26.8574 29.1436L26.8584 29.1445C26.8984 29.1333 26.9434 29.119 26.9727 29.1104C26.9826 29.1074 26.9921 29.1051 27.001 29.1025C27.0106 29.1316 27.0209 29.1627 27.0332 29.1943C27.099 29.3629 27.2353 29.639 27.5068 29.8145L27.5137 29.8184C27.6509 29.9041 27.8201 29.9608 27.9668 29.9951C28.0811 30.0218 28.2087 30.0415 28.3359 30.0469H28.4658C28.5108 30.0448 28.5716 30.0502 28.627 30.0645C28.6533 30.0713 28.673 30.0791 28.6855 30.085C28.6909 30.0875 28.6935 30.0894 28.6943 30.0898L28.6924 30.0879L28.8584 30.2266L28.8633 30.2314C29.056 30.3885 29.2755 30.4715 29.416 30.5098L29.4209 30.5117C29.5354 30.5416 29.678 30.5528 29.8223 30.5312C29.9667 30.5097 30.1598 30.447 30.3164 30.2842L30.3154 30.2832C30.4947 30.0968 30.5339 29.8727 30.5391 29.7334C30.5439 29.6009 30.5212 29.4859 30.5029 29.417H30.5039C30.5032 29.414 30.5018 29.4112 30.501 29.4082C30.5004 29.4059 30.5006 29.4035 30.5 29.4014H30.498C30.4496 29.2232 30.3475 29.0777 30.3369 29.0605L30.334 29.0566L30.2354 28.8994H30.2344C30.1416 28.7492 30.0439 28.5898 29.9404 28.4346C29.6676 28.0186 29.3929 27.5995 29.1133 27.1846V27.1836L29.0352 27.0771C28.8473 26.8372 28.6089 26.6553 28.3232 26.5459C28.0015 26.4228 27.6501 26.4035 27.29 26.458L27.2861 26.459C27.2186 26.4698 27.075 26.5109 26.9375 26.5508C26.7771 26.5973 26.5618 26.661 26.3115 26.7363C25.8104 26.8871 25.1634 27.0841 24.5234 27.2803C24.1092 27.4073 23.6972 27.5333 23.3291 27.6465C23.4178 27.5249 23.5105 27.4002 23.6045 27.2754C23.8454 26.9556 24.0892 26.6465 24.2969 26.4033C24.4008 26.2816 24.4921 26.1805 24.5674 26.1045C24.6049 26.0666 24.636 26.0376 24.6602 26.0166C24.6792 26.0001 24.6896 25.9923 24.6924 25.9902L24.6914 25.9893C25.0871 25.7529 25.1077 25.6544 25.5859 25.5723C26.1882 25.4707 27.1348 25.2708 28.0127 25.0371C28.452 24.9202 28.881 24.7923 29.2451 24.6631C29.5938 24.5394 29.9327 24.3975 30.1543 24.2373C30.9081 23.6918 31.2831 22.8298 31.4717 22.1143C31.6619 21.392 31.6858 20.7309 31.6719 20.4775C31.6638 20.3303 31.6858 20.2561 31.7061 20.2168C31.7234 20.1832 31.7601 20.1351 31.8633 20.0791C31.9742 20.0222 32.5173 19.7213 33.1553 19.2344C33.7896 18.7502 34.5513 18.0565 35.0625 17.207L35.0635 17.2061C35.6544 16.218 35.9751 15.1454 35.8545 13.9443V13.9434C35.774 13.1594 35.5091 12.4332 34.998 11.793L34.9961 11.79C34.5593 11.2492 33.9845 10.8427 33.5488 10.4854C33.4301 10.3868 33.2259 10.2164 33.0439 10.0381C32.9528 9.94873 32.8754 9.86504 32.8193 9.79395C32.7786 9.74227 32.7623 9.71365 32.7578 9.70605C32.7388 9.62893 32.7478 9.56622 32.7646 9.52734C32.7796 9.49293 32.8004 9.47529 32.8262 9.46484C33.0095 9.40549 33.2832 9.36832 33.5947 9.35352C33.9001 9.33901 34.2072 9.34581 34.4346 9.36035V9.36133C34.703 9.38194 34.9782 9.34659 35.2021 9.27246C35.3128 9.23583 35.4348 9.18157 35.541 9.10156C35.6353 9.03052 35.7989 8.87601 35.8193 8.625C35.845 8.30837 35.6455 8.06428 35.5107 7.93945C35.3504 7.79094 35.1337 7.66819 34.8877 7.60938H34.8887C34.7543 7.57638 34.6106 7.54301 34.4707 7.49902C34.3256 7.45339 34.2242 7.40798 34.168 7.37012L34.166 7.36914C34.0862 7.3159 33.9992 7.24638 33.8926 7.15723C33.792 7.07317 33.6692 6.96744 33.5439 6.87012C33.293 6.67507 32.9637 6.45659 32.5547 6.37793Z" stroke="white"/>
</svg>
