<svg width="217" height="49" viewBox="0 0 217 49" fill="none" xmlns="http://www.w3.org/2000/svg">
<path d="M52.5177 38.1904V43.352H18.9414V38.1904H52.5177Z" fill="#FF6B03"/>
<path d="M0 22.3668L11.4441 13.1907L0 4.01455L3.18036 0L19.1864 13.1907L3.18036 26.3814L0 22.3668Z" fill="#FF6B03"/>
<path d="M216.573 28.5123L213.411 29.0723C213.279 28.6678 213.069 28.2828 212.781 27.9173C212.501 27.5517 212.12 27.2522 211.638 27.0189C211.155 26.7856 210.553 26.6689 209.829 26.6689C208.841 26.6689 208.017 26.8906 207.356 27.3339C206.695 27.7695 206.364 28.3334 206.364 29.0256C206.364 29.6245 206.586 30.1068 207.029 30.4723C207.472 30.8379 208.188 31.1374 209.176 31.3707L212.023 32.0241C213.672 32.4052 214.9 32.9924 215.709 33.7858C216.518 34.5791 216.923 35.6097 216.923 36.8776C216.923 37.9509 216.612 38.9076 215.989 39.7476C215.375 40.5799 214.515 41.2332 213.411 41.7077C212.314 42.1822 211.043 42.4194 209.596 42.4194C207.589 42.4194 205.952 41.9916 204.684 41.136C203.416 40.2727 202.638 39.0476 202.351 37.4609L205.722 36.9476C205.932 37.8265 206.364 38.4915 207.017 38.9426C207.671 39.386 208.522 39.6076 209.572 39.6076C210.716 39.6076 211.63 39.3704 212.314 38.8959C212.999 38.4137 213.341 37.8265 213.341 37.1342C213.341 36.5742 213.131 36.1036 212.711 35.7225C212.299 35.3414 211.665 35.0536 210.809 34.8592L207.776 34.1941C206.103 33.813 204.867 33.2063 204.066 32.3741C203.272 31.5418 202.876 30.4879 202.876 29.2123C202.876 28.1545 203.171 27.2289 203.762 26.4356C204.353 25.6422 205.17 25.0238 206.212 24.5805C207.255 24.1294 208.449 23.9038 209.794 23.9038C211.731 23.9038 213.255 24.3238 214.368 25.1638C215.48 25.9961 216.215 27.1122 216.573 28.5123Z" fill="white"/>
<path d="M199.574 24.137V26.9371H189.785V24.137H199.574ZM192.41 19.8435H195.899V36.7957C195.899 37.4724 196 37.9819 196.202 38.3241C196.404 38.6585 196.665 38.888 196.984 39.0124C197.31 39.1291 197.664 39.1874 198.045 39.1874C198.325 39.1874 198.57 39.168 198.78 39.1291C198.99 39.0902 199.154 39.0591 199.27 39.0358L199.9 41.9175C199.698 41.9953 199.41 42.0731 199.037 42.1509C198.664 42.2364 198.197 42.2831 197.637 42.2909C196.719 42.3064 195.864 42.1431 195.07 41.8009C194.277 41.4586 193.635 40.9297 193.145 40.2142C192.655 39.4986 192.41 38.6002 192.41 37.5191V19.8435Z" fill="white"/>
<path d="M177.718 42.4544C176.583 42.4544 175.556 42.2444 174.638 41.8244C173.72 41.3966 172.993 40.7782 172.456 39.9693C171.928 39.1604 171.663 38.1687 171.663 36.9942C171.663 35.9831 171.858 35.1508 172.246 34.4975C172.635 33.8441 173.16 33.3269 173.821 32.9458C174.483 32.5646 175.222 32.2769 176.038 32.0824C176.855 31.8879 177.687 31.7402 178.535 31.6391C179.608 31.5146 180.479 31.4135 181.148 31.3357C181.817 31.2502 182.303 31.114 182.607 30.9274C182.91 30.7407 183.062 30.4373 183.062 30.0173V29.9357C183.062 28.9167 182.774 28.1273 182.198 27.5673C181.631 27.0072 180.783 26.7272 179.655 26.7272C178.481 26.7272 177.555 26.9878 176.878 27.5089C176.209 28.0223 175.747 28.594 175.49 29.224L172.211 28.4773C172.6 27.3884 173.168 26.5094 173.915 25.8405C174.669 25.1638 175.537 24.6738 176.517 24.3705C177.497 24.0594 178.527 23.9038 179.608 23.9038C180.324 23.9038 181.082 23.9894 181.883 24.1605C182.692 24.3238 183.447 24.6272 184.147 25.0705C184.855 25.5139 185.434 26.1478 185.885 26.9722C186.336 27.7889 186.562 28.8506 186.562 30.1573V42.0577H183.155V39.6076H183.015C182.79 40.0588 182.451 40.5021 182 40.9377C181.549 41.3732 180.969 41.7349 180.262 42.0227C179.554 42.3105 178.706 42.4544 177.718 42.4544ZM178.477 39.6543C179.441 39.6543 180.266 39.4637 180.95 39.0826C181.642 38.7015 182.167 38.2037 182.525 37.5892C182.891 36.967 183.073 36.302 183.073 35.5942V33.2841C182.949 33.4086 182.708 33.5252 182.35 33.6341C182 33.7352 181.6 33.8247 181.148 33.9025C180.697 33.9725 180.258 34.0386 179.83 34.1008C179.402 34.1552 179.044 34.2019 178.757 34.2408C178.08 34.3264 177.462 34.4703 176.902 34.6725C176.349 34.8747 175.906 35.1664 175.572 35.5475C175.245 35.9209 175.082 36.4186 175.082 37.0409C175.082 37.9043 175.4 38.5576 176.038 39.001C176.676 39.4365 177.489 39.6543 178.477 39.6543Z" fill="white"/>
<path d="M164.671 24.4405C164.547 23.336 164.034 22.4804 163.131 21.8737C162.229 21.2592 161.094 20.952 159.725 20.952C158.745 20.952 157.897 21.1076 157.181 21.4187C156.466 21.722 155.91 22.1421 155.513 22.6787C155.124 23.2076 154.929 23.8104 154.929 24.4871C154.929 25.0549 155.062 25.5449 155.326 25.9572C155.598 26.3694 155.952 26.7155 156.388 26.9955C156.831 27.2678 157.306 27.4972 157.811 27.6839C158.317 27.8628 158.803 28.0106 159.27 28.1272L161.603 28.7339C162.365 28.9206 163.147 29.1734 163.948 29.4923C164.749 29.8112 165.492 30.2312 166.176 30.7523C166.861 31.2735 167.413 31.919 167.833 32.689C168.261 33.4591 168.475 34.3808 168.475 35.4541C168.475 36.8075 168.125 38.0092 167.425 39.0592C166.733 40.1093 165.725 40.9376 164.403 41.5443C163.089 42.151 161.498 42.4544 159.631 42.4544C157.842 42.4544 156.295 42.1705 154.988 41.6027C153.681 41.0349 152.658 40.2298 151.919 39.1876C151.18 38.1376 150.772 36.8931 150.694 35.4541H154.311C154.381 36.3175 154.661 37.037 155.151 37.6125C155.649 38.1803 156.283 38.6042 157.053 38.8842C157.831 39.1565 158.682 39.2926 159.608 39.2926C160.627 39.2926 161.533 39.1331 162.326 38.8142C163.128 38.4876 163.758 38.0364 164.216 37.4609C164.675 36.8775 164.905 36.1969 164.905 35.4191C164.905 34.7113 164.703 34.1319 164.298 33.6807C163.901 33.2296 163.361 32.8563 162.676 32.5607C162 32.2651 161.234 32.0046 160.378 31.779L157.555 31.009C155.641 30.4879 154.124 29.7217 153.004 28.7106C151.892 27.6994 151.336 26.3616 151.336 24.6971C151.336 23.3204 151.709 22.1187 152.456 21.092C153.203 20.0653 154.214 19.2681 155.489 18.7003C156.765 18.1247 158.204 17.8369 159.806 17.8369C161.424 17.8369 162.851 18.1208 164.088 18.6886C165.333 19.2564 166.313 20.0381 167.028 21.0337C167.744 22.0215 168.117 23.1571 168.148 24.4405H164.671Z" fill="white"/>
<path d="M135.213 31.4174V42.0577H131.725V24.1371H135.073V27.0539H135.295C135.707 26.105 136.353 25.3427 137.231 24.7672C138.118 24.1916 139.234 23.9038 140.58 23.9038C141.801 23.9038 142.871 24.1605 143.788 24.6738C144.706 25.1794 145.418 25.9339 145.923 26.9372C146.429 27.9406 146.682 29.1812 146.682 30.659V42.0577H143.193V31.079C143.193 29.7801 142.855 28.7651 142.178 28.0339C141.502 27.295 140.572 26.9256 139.39 26.9256C138.581 26.9256 137.861 27.1006 137.231 27.4506C136.609 27.8006 136.115 28.3139 135.75 28.9906C135.392 29.6595 135.213 30.4685 135.213 31.4174Z" fill="white"/>
<path d="M120.165 42.4194C118.4 42.4194 116.879 42.0422 115.604 41.2877C114.336 40.5254 113.356 39.456 112.663 38.0793C111.979 36.6948 111.637 35.073 111.637 33.2141C111.637 31.3785 111.979 29.7607 112.663 28.3606C113.356 26.9606 114.32 25.8678 115.557 25.0822C116.801 24.2966 118.256 23.9038 119.92 23.9038C120.931 23.9038 121.911 24.071 122.86 24.4055C123.809 24.7399 124.661 25.265 125.415 25.9805C126.17 26.6961 126.765 27.6256 127.201 28.769C127.636 29.9046 127.854 31.2852 127.854 32.9108V34.1475H113.608V31.534H124.435C124.435 30.6162 124.249 29.8034 123.875 29.0956C123.502 28.3801 122.977 27.8162 122.3 27.4039C121.631 26.9917 120.846 26.7856 119.944 26.7856C118.964 26.7856 118.108 27.0267 117.377 27.5089C116.654 27.9834 116.094 28.6056 115.697 29.3756C115.308 30.1379 115.113 30.9663 115.113 31.8607V33.9025C115.113 35.1003 115.324 36.1192 115.744 36.9592C116.171 37.7992 116.766 38.4409 117.529 38.8843C118.291 39.3198 119.181 39.5376 120.2 39.5376C120.861 39.5376 121.464 39.4443 122.009 39.2576C122.553 39.0632 123.024 38.7754 123.42 38.3943C123.817 38.0131 124.12 37.5426 124.33 36.9826L127.632 37.5776C127.368 38.5498 126.893 39.4015 126.209 40.1327C125.532 40.856 124.68 41.4199 123.654 41.8244C122.635 42.2211 121.472 42.4194 120.165 42.4194Z" fill="white"/>
<path d="M92.1641 48.7779V24.1371H95.5708V27.0422H95.8625C96.0647 26.6689 96.3564 26.2372 96.7375 25.7472C97.1187 25.2572 97.6476 24.8294 98.3243 24.4638C99.0009 24.0905 99.8954 23.9038 101.008 23.9038C102.454 23.9038 103.746 24.2694 104.881 25.0005C106.017 25.7316 106.907 26.7856 107.553 28.1623C108.206 29.539 108.533 31.1957 108.533 33.1324C108.533 35.0692 108.21 36.7298 107.565 38.1143C106.919 39.491 106.032 40.5527 104.904 41.2994C103.777 42.0383 102.489 42.4077 101.043 42.4077C99.9538 42.4077 99.0632 42.2249 98.3709 41.8594C97.6865 41.4938 97.1498 41.066 96.7609 40.576C96.372 40.086 96.0725 39.6504 95.8625 39.2693H95.6525V48.7779H92.1641ZM95.5825 33.0974C95.5825 34.3575 95.7653 35.462 96.1309 36.4109C96.4964 37.3598 97.0253 38.1026 97.7176 38.6393C98.4098 39.1682 99.2576 39.4326 100.261 39.4326C101.303 39.4326 102.174 39.1565 102.874 38.6043C103.574 38.0443 104.103 37.2859 104.461 36.3292C104.827 35.3725 105.009 34.2952 105.009 33.0974C105.009 31.9152 104.831 30.8535 104.473 29.9123C104.123 28.9712 103.594 28.2284 102.886 27.6839C102.186 27.1395 101.311 26.8672 100.261 26.8672C99.2498 26.8672 98.3943 27.1278 97.6942 27.6489C97.002 28.1701 96.477 28.8973 96.1192 29.8307C95.7614 30.764 95.5825 31.8529 95.5825 33.0974Z" fill="white"/>
<path d="M87.9495 30.1109C87.9495 32.6621 87.4828 34.8555 86.5495 36.6911C85.6161 38.5189 84.3366 39.9267 82.711 40.9146C81.0932 41.8946 79.2537 42.3846 77.1925 42.3846C75.1235 42.3846 73.2763 41.8946 71.6507 40.9146C70.0328 39.9267 68.7572 38.515 67.8239 36.6794C66.8905 34.8438 66.4238 32.6543 66.4238 30.1109C66.4238 27.5597 66.8905 25.3702 67.8239 23.5423C68.7572 21.7067 70.0328 20.2989 71.6507 19.3189C73.2763 18.3311 75.1235 17.8372 77.1925 17.8372C79.2537 17.8372 81.0932 18.3311 82.711 19.3189C84.3366 20.2989 85.6161 21.7067 86.5495 23.5423C87.4828 25.3702 87.9495 27.5597 87.9495 30.1109ZM84.3794 30.1109C84.3794 28.1664 84.0644 26.5291 83.4344 25.1991C82.8121 23.8612 81.9565 22.8501 80.8676 22.1656C79.7865 21.4734 78.5614 21.1273 77.1925 21.1273C75.8158 21.1273 74.5869 21.4734 73.5057 22.1656C72.4246 22.8501 71.569 23.8612 70.939 25.1991C70.3167 26.5291 70.0056 28.1664 70.0056 30.1109C70.0056 32.0554 70.3167 33.6965 70.939 35.0344C71.569 36.3644 72.4246 37.3756 73.5057 38.0678C74.5869 38.7523 75.8158 39.0945 77.1925 39.0945C78.5614 39.0945 79.7865 38.7523 80.8676 38.0678C81.9565 37.3756 82.8121 36.3644 83.4344 35.0344C84.0644 33.6965 84.3794 32.0554 84.3794 30.1109Z" fill="white"/>
</svg>
