<svg width="16" height="17" viewBox="0 0 16 17" fill="none" xmlns="http://www.w3.org/2000/svg">
<g clip-path="url(#clip0_1_603)">
<g opacity="0.9">
<path fill-rule="evenodd" clip-rule="evenodd" d="M8 1.38867C4.13558 1.38867 1 4.52425 1 8.38867C1 12.2531 4.13558 15.3887 8 15.3887C11.8568 15.3887 15 12.2531 15 8.38867C15 4.52425 11.8568 1.38867 8 1.38867ZM12.6236 4.61535C13.4588 5.63271 13.9599 6.93097 13.9751 8.33552C13.7777 8.29758 11.8037 7.89517 9.81453 8.14573C9.76899 8.04703 9.73101 7.94072 9.68547 7.83445C9.56398 7.54596 9.42734 7.24986 9.29067 6.96894C11.4924 6.07307 12.4946 4.78238 12.6236 4.61535ZM8 2.42121C9.51843 2.42121 10.9078 2.99063 11.9631 3.92447C11.8568 4.07631 10.9533 5.28347 8.82753 6.08064C7.84814 4.28129 6.76249 2.80841 6.59545 2.58064C7.04336 2.47435 7.51411 2.42121 8 2.42121ZM5.45664 2.98303C5.61606 3.19561 6.67897 4.67609 7.67354 6.43747C4.87961 7.18152 2.41215 7.16634 2.14642 7.16634C2.53362 5.31383 3.78633 3.77262 5.45664 2.98303ZM2.01735 8.39628C2.01735 8.33552 2.01735 8.27479 2.01735 8.21407C2.27549 8.22163 5.17571 8.25961 8.15943 7.36374C8.33408 7.69777 8.4935 8.03942 8.64536 8.38106C8.56941 8.40385 8.48589 8.42665 8.40998 8.4494C5.32755 9.44397 3.68764 12.162 3.55098 12.3897C2.60195 11.3344 2.01735 9.9299 2.01735 8.39628ZM8 14.3713C6.6182 14.3713 5.34273 13.9006 4.33297 13.111C4.43926 12.8909 5.65399 10.5525 9.02493 9.37567C9.04011 9.36806 9.04773 9.36806 9.06291 9.36049C9.90562 11.5394 10.2473 13.3691 10.3384 13.893C9.61713 14.2043 8.82753 14.3713 8 14.3713ZM11.333 13.3464C11.2722 12.9819 10.9533 11.2357 10.1714 9.08714C12.0467 8.79104 13.6865 9.27697 13.8916 9.34531C13.6334 11.008 12.6768 12.4429 11.333 13.3464Z" fill="#262626"/>
</g>
</g>
<defs>
<clipPath id="clip0_1_603">
<rect width="16" height="17" fill="white"/>
</clipPath>
</defs>
</svg>
