<svg width="16" height="17" viewBox="0 0 16 17" fill="none" xmlns="http://www.w3.org/2000/svg">
<g clip-path="url(#clip0_1_608)">
<g opacity="0.9">
<path d="M13.9637 1.38867H2.03359C1.46211 1.38867 1 1.83984 1 2.39766V14.377C1 14.9348 1.46211 15.3887 2.03359 15.3887H13.9637C14.5352 15.3887 15 14.9348 15 14.3797V2.39766C15 1.83984 14.5352 1.38867 13.9637 1.38867ZM5.15352 13.3187H3.07539V6.63594H5.15352V13.3187ZM4.11445 5.72539C3.44727 5.72539 2.90859 5.18672 2.90859 4.52227C2.90859 3.85781 3.44727 3.31914 4.11445 3.31914C4.77891 3.31914 5.31758 3.85781 5.31758 4.52227C5.31758 5.18398 4.77891 5.72539 4.11445 5.72539ZM12.9301 13.3187H10.8547V10.0703C10.8547 9.29648 10.841 8.29844 9.77461 8.29844C8.69453 8.29844 8.53047 9.14336 8.53047 10.0156V13.3187H6.45781V6.63594H8.44844V7.54922H8.47578C8.75195 7.02422 9.43008 6.46914 10.4391 6.46914C12.5418 6.46914 12.9301 7.85273 12.9301 9.65195V13.3187Z" fill="#262626"/>
</g>
</g>
<defs>
<clipPath id="clip0_1_608">
<rect width="16" height="17" fill="white"/>
</clipPath>
</defs>
</svg>
