<svg width="16" height="17" viewBox="0 0 16 17" fill="none" xmlns="http://www.w3.org/2000/svg">
<g opacity="0.9">
<path d="M5.71885 14.5766C11.3778 14.5766 14.4739 9.88707 14.4739 5.82154C14.4739 5.68971 14.471 5.55494 14.4651 5.42311C15.0674 4.98754 15.5872 4.44804 16 3.82994C15.4391 4.0795 14.8435 4.24249 14.2337 4.31334C14.8758 3.92845 15.3566 3.3238 15.5869 2.61148C14.9828 2.96948 14.3222 3.22201 13.6334 3.35826C13.1693 2.86511 12.5556 2.53858 11.8873 2.42916C11.219 2.31975 10.5332 2.43354 9.93609 2.75294C9.33893 3.07234 8.86363 3.57957 8.58365 4.1962C8.30368 4.81283 8.23464 5.50451 8.38721 6.16432C7.16406 6.10294 5.96746 5.7852 4.87499 5.23169C3.78252 4.67819 2.81856 3.90128 2.04561 2.95133C1.65275 3.62866 1.53254 4.43016 1.70939 5.19294C1.88625 5.95572 2.34691 6.62253 2.99775 7.05787C2.50914 7.04236 2.03123 6.91081 1.60352 6.67408V6.71217C1.60308 7.42297 1.84881 8.112 2.29894 8.66211C2.74908 9.21223 3.37583 9.58948 4.07266 9.72975C3.62003 9.85359 3.14499 9.87163 2.68428 9.78248C2.88091 10.3938 3.26348 10.9284 3.77861 11.3118C4.29373 11.6952 4.9157 11.9083 5.55771 11.9212C4.46777 12.7773 3.12136 13.2417 1.73535 13.2395C1.48955 13.2391 1.244 13.2241 1 13.1944C2.40804 14.0977 4.04596 14.5775 5.71885 14.5766Z" fill="#262626"/>
</g>
</svg>
